<svg xmlns="http://www.w3.org/2000/svg">
<!-- The hub's one shared icon set (audit batch 4: CONS-ICON-1, GAP-ICON-2, ICON-5; the spec is audits/04-design-system.md
     Tables ICON-1..6). Geometry: Lucide (https://lucide.dev, ISC; licence and the list of what ships in icons/LICENSE-lucide.txt).
     i-cross, i-circle-half and i-hands are drawn here in Lucide's style (24 grid, round caps and joins): Lucide has no Latin
     cross, no half-filled circle and no praying hands.
     One recipe: every symbol is a 24-unit stroke drawing in currentColor; every shape carries vector-effect: non-scaling-stroke,
     so the page's stroke-width (the icon-stroke token, 1.75) is the same 1.75 px at every icon-size token size. The stroke width is NOT set here:
     the <svg> that draws a symbol sets it (design.css svg.sym), and it inherits through <use>.
     Use:  <svg class="sym" aria-hidden="true"><use href="../icons/sprite.svg#i-check"/></svg>   (from apps/*.html)
     One meaning per drawing (Table ICON-6): i-activity is the feed, i-flame the streak; i-plus is Add, i-circle-plus the Tally.
     Batch 5 (Verses): i-circle-dashed is "Almost" (adults and kids), i-play / i-square play and stop a recording.
     i-star's shape reads the sym-fill custom property (it inherits through use; unset = no fill, the outline as before), so
     a page can fill the one star drawing (Verses' celebration star sets it to the star-fill token). No double hyphen may
     appear inside this comment: XML forbids it, and one would break every symbol in the file. -->
<defs>
<symbol id="i-check" viewBox="0 0 24 24" fill="none" stroke="currentColor" stroke-linecap="round" stroke-linejoin="round"><path vector-effect="non-scaling-stroke" d="M20 6 9 17l-5-5"/></symbol>
<symbol id="i-x" viewBox="0 0 24 24" fill="none" stroke="currentColor" stroke-linecap="round" stroke-linejoin="round"><path vector-effect="non-scaling-stroke" d="M18 6 6 18"/><path vector-effect="non-scaling-stroke" d="m6 6 12 12"/></symbol>
<symbol id="i-plus" viewBox="0 0 24 24" fill="none" stroke="currentColor" stroke-linecap="round" stroke-linejoin="round"><path vector-effect="non-scaling-stroke" d="M5 12h14"/><path vector-effect="non-scaling-stroke" d="M12 5v14"/></symbol>
<symbol id="i-minus" viewBox="0 0 24 24" fill="none" stroke="currentColor" stroke-linecap="round" stroke-linejoin="round"><path vector-effect="non-scaling-stroke" d="M5 12h14"/></symbol>
<symbol id="i-circle-plus" viewBox="0 0 24 24" fill="none" stroke="currentColor" stroke-linecap="round" stroke-linejoin="round"><circle vector-effect="non-scaling-stroke" cx="12" cy="12" r="10"/><path vector-effect="non-scaling-stroke" d="M8 12h8"/><path vector-effect="non-scaling-stroke" d="M12 8v8"/></symbol>
<symbol id="i-chevron-left" viewBox="0 0 24 24" fill="none" stroke="currentColor" stroke-linecap="round" stroke-linejoin="round"><path vector-effect="non-scaling-stroke" d="m15 18-6-6 6-6"/></symbol>
<symbol id="i-chevron-right" viewBox="0 0 24 24" fill="none" stroke="currentColor" stroke-linecap="round" stroke-linejoin="round"><path vector-effect="non-scaling-stroke" d="m9 18 6-6-6-6"/></symbol>
<symbol id="i-chevron-down" viewBox="0 0 24 24" fill="none" stroke="currentColor" stroke-linecap="round" stroke-linejoin="round"><path vector-effect="non-scaling-stroke" d="m6 9 6 6 6-6"/></symbol>
<symbol id="i-chevron-up" viewBox="0 0 24 24" fill="none" stroke="currentColor" stroke-linecap="round" stroke-linejoin="round"><path vector-effect="non-scaling-stroke" d="m18 15-6-6-6 6"/></symbol>
<symbol id="i-external-link" viewBox="0 0 24 24" fill="none" stroke="currentColor" stroke-linecap="round" stroke-linejoin="round"><path vector-effect="non-scaling-stroke" d="M15 3h6v6"/><path vector-effect="non-scaling-stroke" d="M10 14 21 3"/><path vector-effect="non-scaling-stroke" d="M18 13v6a2 2 0 0 1-2 2H5a2 2 0 0 1-2-2V8a2 2 0 0 1 2-2h6"/></symbol>
<symbol id="i-copy" viewBox="0 0 24 24" fill="none" stroke="currentColor" stroke-linecap="round" stroke-linejoin="round"><rect vector-effect="non-scaling-stroke" width="14" height="14" x="8" y="8" rx="2" ry="2"/><path vector-effect="non-scaling-stroke" d="M4 16c-1.1 0-2-.9-2-2V4c0-1.1.9-2 2-2h10c1.1 0 2 .9 2 2"/></symbol>
<symbol id="i-refresh-cw" viewBox="0 0 24 24" fill="none" stroke="currentColor" stroke-linecap="round" stroke-linejoin="round"><path vector-effect="non-scaling-stroke" d="M3 12a9 9 0 0 1 9-9 9.75 9.75 0 0 1 6.74 2.74L21 8"/><path vector-effect="non-scaling-stroke" d="M21 3v5h-5"/><path vector-effect="non-scaling-stroke" d="M21 12a9 9 0 0 1-9 9 9.75 9.75 0 0 1-6.74-2.74L3 16"/><path vector-effect="non-scaling-stroke" d="M8 16H3v5"/></symbol>
<symbol id="i-rotate-ccw" viewBox="0 0 24 24" fill="none" stroke="currentColor" stroke-linecap="round" stroke-linejoin="round"><path vector-effect="non-scaling-stroke" d="M3 12a9 9 0 1 0 9-9 9.75 9.75 0 0 0-6.74 2.74L3 8"/><path vector-effect="non-scaling-stroke" d="M3 3v5h5"/></symbol>
<symbol id="i-settings" viewBox="0 0 24 24" fill="none" stroke="currentColor" stroke-linecap="round" stroke-linejoin="round"><path vector-effect="non-scaling-stroke" d="M12.22 2h-.44a2 2 0 0 0-2 2v.18a2 2 0 0 1-1 1.73l-.43.25a2 2 0 0 1-2 0l-.15-.08a2 2 0 0 0-2.73.73l-.22.38a2 2 0 0 0 .73 2.73l.15.1a2 2 0 0 1 1 1.72v.51a2 2 0 0 1-1 1.74l-.15.09a2 2 0 0 0-.73 2.73l.22.38a2 2 0 0 0 2.73.73l.15-.08a2 2 0 0 1 2 0l.43.25a2 2 0 0 1 1 1.73V20a2 2 0 0 0 2 2h.44a2 2 0 0 0 2-2v-.18a2 2 0 0 1 1-1.73l.43-.25a2 2 0 0 1 2 0l.15.08a2 2 0 0 0 2.73-.73l.22-.39a2 2 0 0 0-.73-2.73l-.15-.08a2 2 0 0 1-1-1.74v-.5a2 2 0 0 1 1-1.74l.15-.09a2 2 0 0 0 .73-2.73l-.22-.38a2 2 0 0 0-2.73-.73l-.15.08a2 2 0 0 1-2 0l-.43-.25a2 2 0 0 1-1-1.73V4a2 2 0 0 0-2-2z"/><circle vector-effect="non-scaling-stroke" cx="12" cy="12" r="3"/></symbol>
<symbol id="i-sliders-horizontal" viewBox="0 0 24 24" fill="none" stroke="currentColor" stroke-linecap="round" stroke-linejoin="round"><path vector-effect="non-scaling-stroke" d="M21 4h-7"/><path vector-effect="non-scaling-stroke" d="M10 4H3"/><path vector-effect="non-scaling-stroke" d="M21 12h-9"/><path vector-effect="non-scaling-stroke" d="M8 12H3"/><path vector-effect="non-scaling-stroke" d="M21 20h-5"/><path vector-effect="non-scaling-stroke" d="M12 20H3"/><path vector-effect="non-scaling-stroke" d="M14 2v4"/><path vector-effect="non-scaling-stroke" d="M8 10v4"/><path vector-effect="non-scaling-stroke" d="M16 18v4"/></symbol>
<symbol id="i-ellipsis" viewBox="0 0 24 24" fill="none" stroke="currentColor" stroke-linecap="round" stroke-linejoin="round"><circle vector-effect="non-scaling-stroke" cx="12" cy="12" r="1"/><circle vector-effect="non-scaling-stroke" cx="19" cy="12" r="1"/><circle vector-effect="non-scaling-stroke" cx="5" cy="12" r="1"/></symbol>
<symbol id="i-printer" viewBox="0 0 24 24" fill="none" stroke="currentColor" stroke-linecap="round" stroke-linejoin="round"><path vector-effect="non-scaling-stroke" d="M6 18H4a2 2 0 0 1-2-2v-5a2 2 0 0 1 2-2h16a2 2 0 0 1 2 2v5a2 2 0 0 1-2 2h-2"/><path vector-effect="non-scaling-stroke" d="M6 9V3a1 1 0 0 1 1-1h10a1 1 0 0 1 1 1v6"/><rect vector-effect="non-scaling-stroke" x="6" y="14" width="12" height="8" rx="1"/></symbol>
<symbol id="i-pen-line" viewBox="0 0 24 24" fill="none" stroke="currentColor" stroke-linecap="round" stroke-linejoin="round"><path vector-effect="non-scaling-stroke" d="M12 20h9"/><path vector-effect="non-scaling-stroke" d="M16.376 3.622a1 1 0 0 1 3.002 3.002L7.368 18.635a2 2 0 0 1-.855.506l-2.872.838a.5.5 0 0 1-.62-.62l.838-2.872a2 2 0 0 1 .506-.854z"/></symbol>
<symbol id="i-search" viewBox="0 0 24 24" fill="none" stroke="currentColor" stroke-linecap="round" stroke-linejoin="round"><circle vector-effect="non-scaling-stroke" cx="11" cy="11" r="8"/><path vector-effect="non-scaling-stroke" d="m21 21-4.3-4.3"/></symbol>
<symbol id="i-lock" viewBox="0 0 24 24" fill="none" stroke="currentColor" stroke-linecap="round" stroke-linejoin="round"><rect vector-effect="non-scaling-stroke" width="18" height="11" x="3" y="11" rx="2" ry="2"/><path vector-effect="non-scaling-stroke" d="M7 11V7a5 5 0 0 1 10 0v4"/></symbol>
<symbol id="i-book" viewBox="0 0 24 24" fill="none" stroke="currentColor" stroke-linecap="round" stroke-linejoin="round"><path vector-effect="non-scaling-stroke" d="M4 19.5v-15A2.5 2.5 0 0 1 6.5 2H19a1 1 0 0 1 1 1v18a1 1 0 0 1-1 1H6.5a1 1 0 0 1 0-5H20"/></symbol>
<symbol id="i-book-open" viewBox="0 0 24 24" fill="none" stroke="currentColor" stroke-linecap="round" stroke-linejoin="round"><path vector-effect="non-scaling-stroke" d="M12 7v14"/><path vector-effect="non-scaling-stroke" d="M3 18a1 1 0 0 1-1-1V4a1 1 0 0 1 1-1h5a4 4 0 0 1 4 4 4 4 0 0 1 4-4h5a1 1 0 0 1 1 1v13a1 1 0 0 1-1 1h-6a3 3 0 0 0-3 3 3 3 0 0 0-3-3z"/></symbol>
<symbol id="i-book-marked" viewBox="0 0 24 24" fill="none" stroke="currentColor" stroke-linecap="round" stroke-linejoin="round"><path vector-effect="non-scaling-stroke" d="M10 2v8l3-3 3 3V2"/><path vector-effect="non-scaling-stroke" d="M4 19.5v-15A2.5 2.5 0 0 1 6.5 2H19a1 1 0 0 1 1 1v18a1 1 0 0 1-1 1H6.5a1 1 0 0 1 0-5H20"/></symbol>
<symbol id="i-book-lock" viewBox="0 0 24 24" fill="none" stroke="currentColor" stroke-linecap="round" stroke-linejoin="round"><path vector-effect="non-scaling-stroke" d="M18 6V4a2 2 0 1 0-4 0v2"/><path vector-effect="non-scaling-stroke" d="M20 15v6a1 1 0 0 1-1 1H6.5a1 1 0 0 1 0-5H20"/><path vector-effect="non-scaling-stroke" d="M4 19.5v-15A2.5 2.5 0 0 1 6.5 2H10"/><rect vector-effect="non-scaling-stroke" x="12" y="6" width="8" height="5" rx="1"/></symbol>
<symbol id="i-notebook" viewBox="0 0 24 24" fill="none" stroke="currentColor" stroke-linecap="round" stroke-linejoin="round"><path vector-effect="non-scaling-stroke" d="M2 6h4"/><path vector-effect="non-scaling-stroke" d="M2 10h4"/><path vector-effect="non-scaling-stroke" d="M2 14h4"/><path vector-effect="non-scaling-stroke" d="M2 18h4"/><rect vector-effect="non-scaling-stroke" width="16" height="20" x="4" y="2" rx="2"/><path vector-effect="non-scaling-stroke" d="M16 2v20"/></symbol>
<symbol id="i-flame" viewBox="0 0 24 24" fill="none" stroke="currentColor" stroke-linecap="round" stroke-linejoin="round"><path vector-effect="non-scaling-stroke" d="M8.5 14.5A2.5 2.5 0 0 0 11 12c0-1.38-.5-2-1-3-1.072-2.143-.224-4.054 2-6 .5 2.5 2 4.9 4 6.5 2 1.6 3 3.5 3 5.5a7 7 0 1 1-14 0c0-1.153.433-2.294 1-3a2.5 2.5 0 0 0 2.5 2.5z"/></symbol>
<symbol id="i-activity" viewBox="0 0 24 24" fill="none" stroke="currentColor" stroke-linecap="round" stroke-linejoin="round"><path vector-effect="non-scaling-stroke" d="M22 12h-2.48a2 2 0 0 0-1.93 1.46l-2.35 8.36a.25.25 0 0 1-.48 0L9.24 2.18a.25.25 0 0 0-.48 0l-2.35 8.36A2 2 0 0 1 4.49 12H2"/></symbol>
<symbol id="i-heart" viewBox="0 0 24 24" fill="none" stroke="currentColor" stroke-linecap="round" stroke-linejoin="round"><path vector-effect="non-scaling-stroke" d="M19 14c1.49-1.46 3-3.21 3-5.5A5.5 5.5 0 0 0 16.5 3c-1.76 0-3 .5-4.5 2-1.5-1.5-2.74-2-4.5-2A5.5 5.5 0 0 0 2 8.5c0 2.3 1.5 4.05 3 5.5l7 7Z"/></symbol>
<symbol id="i-star" viewBox="0 0 24 24" fill="none" stroke="currentColor" stroke-linecap="round" stroke-linejoin="round"><path vector-effect="non-scaling-stroke" style="fill:var(--sym-fill,none)" d="M11.525 2.295a.53.53 0 0 1 .95 0l2.31 4.679a2.123 2.123 0 0 0 1.595 1.16l5.166.756a.53.53 0 0 1 .294.904l-3.736 3.638a2.123 2.123 0 0 0-.611 1.878l.882 5.14a.53.53 0 0 1-.771.56l-4.618-2.428a2.122 2.122 0 0 0-1.973 0L6.396 21.01a.53.53 0 0 1-.77-.56l.881-5.139a2.122 2.122 0 0 0-.611-1.879L2.16 9.795a.53.53 0 0 1 .294-.906l5.165-.755a2.122 2.122 0 0 0 1.597-1.16z"/></symbol>
<symbol id="i-mountain" viewBox="0 0 24 24" fill="none" stroke="currentColor" stroke-linecap="round" stroke-linejoin="round"><path vector-effect="non-scaling-stroke" d="m8 3 4 8 5-5 5 15H2L8 3z"/></symbol>
<symbol id="i-music" viewBox="0 0 24 24" fill="none" stroke="currentColor" stroke-linecap="round" stroke-linejoin="round"><path vector-effect="non-scaling-stroke" d="M9 18V5l12-2v13"/><circle vector-effect="non-scaling-stroke" cx="6" cy="18" r="3"/><circle vector-effect="non-scaling-stroke" cx="18" cy="16" r="3"/></symbol>
<symbol id="i-circle-half" viewBox="0 0 24 24" fill="none" stroke="currentColor" stroke-linecap="round" stroke-linejoin="round"><path d="M12 2a10 10 0 0 1 0 20z" fill="currentColor" stroke="none"/><circle vector-effect="non-scaling-stroke" cx="12" cy="12" r="10"/></symbol>
<symbol id="i-cross" viewBox="0 0 24 24" fill="none" stroke="currentColor" stroke-linecap="round" stroke-linejoin="round"><path vector-effect="non-scaling-stroke" d="M10.5 2h3a1 1 0 0 1 1 1v4h4a1 1 0 0 1 1 1v3a1 1 0 0 1-1 1h-4v9a1 1 0 0 1-1 1h-3a1 1 0 0 1-1-1v-9h-4a1 1 0 0 1-1-1V8a1 1 0 0 1 1-1h4V3a1 1 0 0 1 1-1z"/></symbol>
<symbol id="i-flag-triangle-right" viewBox="0 0 24 24" fill="none" stroke="currentColor" stroke-linecap="round" stroke-linejoin="round"><path vector-effect="non-scaling-stroke" d="M7 22V2l10 5-10 5"/></symbol>
<symbol id="i-party-popper" viewBox="0 0 24 24" fill="none" stroke="currentColor" stroke-linecap="round" stroke-linejoin="round"><path vector-effect="non-scaling-stroke" d="M5.8 11.3 2 22l10.7-3.79"/><path vector-effect="non-scaling-stroke" d="M4 3h.01"/><path vector-effect="non-scaling-stroke" d="M22 8h.01"/><path vector-effect="non-scaling-stroke" d="M15 2h.01"/><path vector-effect="non-scaling-stroke" d="M22 20h.01"/><path vector-effect="non-scaling-stroke" d="m22 2-2.24.75a2.9 2.9 0 0 0-1.96 3.12c.1.86-.57 1.63-1.45 1.63h-.38c-.86 0-1.6.6-1.76 1.44L14 10"/><path vector-effect="non-scaling-stroke" d="m22 13-.82-.33c-.86-.34-1.82.2-1.98 1.11-.11.7-.72 1.22-1.43 1.22H17"/><path vector-effect="non-scaling-stroke" d="m11 2 .33.82c.34.86-.2 1.82-1.11 1.98C9.52 4.9 9 5.52 9 6.23V7"/><path vector-effect="non-scaling-stroke" d="M11 13c1.93 1.93 2.83 4.17 2 5-.83.83-3.07-.07-5-2-1.93-1.93-2.83-4.17-2-5 .83-.83 3.07.07 5 2Z"/></symbol>
<symbol id="i-triangle-alert" viewBox="0 0 24 24" fill="none" stroke="currentColor" stroke-linecap="round" stroke-linejoin="round"><path vector-effect="non-scaling-stroke" d="m21.73 18-8-14a2 2 0 0 0-3.48 0l-8 14A2 2 0 0 0 4 21h16a2 2 0 0 0 1.73-3"/><path vector-effect="non-scaling-stroke" d="M12 9v4"/><path vector-effect="non-scaling-stroke" d="M12 17h.01"/></symbol>
<symbol id="i-mic" viewBox="0 0 24 24" fill="none" stroke="currentColor" stroke-linecap="round" stroke-linejoin="round"><path vector-effect="non-scaling-stroke" d="M12 2a3 3 0 0 0-3 3v7a3 3 0 0 0 6 0V5a3 3 0 0 0-3-3Z"/><path vector-effect="non-scaling-stroke" d="M19 10v2a7 7 0 0 1-14 0v-2"/><path vector-effect="non-scaling-stroke" d="M12 19v3"/></symbol>
<symbol id="i-volume-2" viewBox="0 0 24 24" fill="none" stroke="currentColor" stroke-linecap="round" stroke-linejoin="round"><path vector-effect="non-scaling-stroke" d="M11 4.702a.705.705 0 0 0-1.203-.498L6.413 7.587A1.4 1.4 0 0 1 5.416 8H3a1 1 0 0 0-1 1v6a1 1 0 0 0 1 1h2.416a1.4 1.4 0 0 1 .997.413l3.383 3.384A.705.705 0 0 0 11 19.298z"/><path vector-effect="non-scaling-stroke" d="M16 9a5 5 0 0 1 0 6"/><path vector-effect="non-scaling-stroke" d="M19.364 18.364a9 9 0 0 0 0-12.728"/></symbol>
<symbol id="i-sun" viewBox="0 0 24 24" fill="none" stroke="currentColor" stroke-linecap="round" stroke-linejoin="round"><circle vector-effect="non-scaling-stroke" cx="12" cy="12" r="4"/><path vector-effect="non-scaling-stroke" d="M12 2v2"/><path vector-effect="non-scaling-stroke" d="M12 20v2"/><path vector-effect="non-scaling-stroke" d="m4.93 4.93 1.41 1.41"/><path vector-effect="non-scaling-stroke" d="m17.66 17.66 1.41 1.41"/><path vector-effect="non-scaling-stroke" d="M2 12h2"/><path vector-effect="non-scaling-stroke" d="M20 12h2"/><path vector-effect="non-scaling-stroke" d="m6.34 17.66-1.41 1.41"/><path vector-effect="non-scaling-stroke" d="m19.07 4.93-1.41 1.41"/></symbol>
<symbol id="i-list" viewBox="0 0 24 24" fill="none" stroke="currentColor" stroke-linecap="round" stroke-linejoin="round"><path vector-effect="non-scaling-stroke" d="M3 12h.01"/><path vector-effect="non-scaling-stroke" d="M3 18h.01"/><path vector-effect="non-scaling-stroke" d="M3 6h.01"/><path vector-effect="non-scaling-stroke" d="M8 12h13"/><path vector-effect="non-scaling-stroke" d="M8 18h13"/><path vector-effect="non-scaling-stroke" d="M8 6h13"/></symbol>
<symbol id="i-bookmark" viewBox="0 0 24 24" fill="none" stroke="currentColor" stroke-linecap="round" stroke-linejoin="round"><path vector-effect="non-scaling-stroke" d="m19 21-7-4-7 4V5a2 2 0 0 1 2-2h10a2 2 0 0 1 2 2v16z"/></symbol>
<symbol id="i-hand-heart" viewBox="0 0 24 24" fill="none" stroke="currentColor" stroke-linecap="round" stroke-linejoin="round"><path vector-effect="non-scaling-stroke" d="M11 14h2a2 2 0 1 0 0-4h-3c-.6 0-1.1.2-1.4.6L3 16"/><path vector-effect="non-scaling-stroke" d="m7 20 1.6-1.4c.3-.4.8-.6 1.4-.6h4c1.1 0 2.1-.4 2.8-1.2l4.6-4.4a2 2 0 0 0-2.75-2.91l-4.2 3.9"/><path vector-effect="non-scaling-stroke" d="m2 15 6 6"/><path vector-effect="non-scaling-stroke" d="M19.5 8.5c.7-.7 1.5-1.6 1.5-2.7A2.73 2.73 0 0 0 16 4a2.78 2.78 0 0 0-5 1.8c0 1.2.8 2 1.5 2.8L16 12Z"/></symbol>
<symbol id="i-hands" viewBox="0 0 24 24" fill="none" stroke="currentColor" stroke-linecap="round" stroke-linejoin="round"><path d="M12 4c-.9-1-2.3-.6-2.6.6L7.8 11 5 14.3l4 5.2 3-1.7 3 1.7 4-5.2-2.8-3.3-1.6-6.4c-.3-1.2-1.7-1.6-2.6-.6Z" fill="currentColor" fill-opacity=".3" stroke="none"/><path vector-effect="non-scaling-stroke" d="M12 4v11.5"/><path vector-effect="non-scaling-stroke" d="M12 4c-.9-1-2.3-.6-2.6.6L7.8 11 5 14.3l4 5.2 3-1.7"/><path vector-effect="non-scaling-stroke" d="M12 4c.9-1 2.3-.6 2.6.6l1.6 6.4 2.8 3.3-4 5.2-3-1.7"/><path vector-effect="non-scaling-stroke" d="M3.2 16.7 6.8 21"/><path vector-effect="non-scaling-stroke" d="M20.8 16.7 17.2 21"/></symbol>
<symbol id="i-bell" viewBox="0 0 24 24" fill="none" stroke="currentColor" stroke-linecap="round" stroke-linejoin="round"><path vector-effect="non-scaling-stroke" d="M10.268 21a2 2 0 0 0 3.464 0"/><path vector-effect="non-scaling-stroke" d="M3.262 15.326A1 1 0 0 0 4 17h16a1 1 0 0 0 .74-1.673C19.41 13.956 18 12.499 18 8A6 6 0 0 0 6 8c0 4.499-1.411 5.956-2.738 7.326"/></symbol>
<symbol id="i-clock" viewBox="0 0 24 24" fill="none" stroke="currentColor" stroke-linecap="round" stroke-linejoin="round"><circle vector-effect="non-scaling-stroke" cx="12" cy="12" r="10"/><path vector-effect="non-scaling-stroke" d="M12 6v6l4 2"/></symbol>
<symbol id="i-calendar" viewBox="0 0 24 24" fill="none" stroke="currentColor" stroke-linecap="round" stroke-linejoin="round"><path vector-effect="non-scaling-stroke" d="M8 2v4"/><path vector-effect="non-scaling-stroke" d="M16 2v4"/><rect vector-effect="non-scaling-stroke" width="18" height="18" x="3" y="4" rx="2"/><path vector-effect="non-scaling-stroke" d="M3 10h18"/></symbol>
<symbol id="i-eye" viewBox="0 0 24 24" fill="none" stroke="currentColor" stroke-linecap="round" stroke-linejoin="round"><path vector-effect="non-scaling-stroke" d="M2.062 12.348a1 1 0 0 1 0-.696 10.75 10.75 0 0 1 19.876 0 1 1 0 0 1 0 .696 10.75 10.75 0 0 1-19.876 0"/><circle vector-effect="non-scaling-stroke" cx="12" cy="12" r="3"/></symbol>
<symbol id="i-chart-column" viewBox="0 0 24 24" fill="none" stroke="currentColor" stroke-linecap="round" stroke-linejoin="round"><path vector-effect="non-scaling-stroke" d="M3 3v16a2 2 0 0 0 2 2h16"/><path vector-effect="non-scaling-stroke" d="M18 17V9"/><path vector-effect="non-scaling-stroke" d="M13 17V5"/><path vector-effect="non-scaling-stroke" d="M8 17v-3"/></symbol>
<symbol id="i-hash" viewBox="0 0 24 24" fill="none" stroke="currentColor" stroke-linecap="round" stroke-linejoin="round"><path vector-effect="non-scaling-stroke" d="M4 9h16"/><path vector-effect="non-scaling-stroke" d="M4 15h16"/><path vector-effect="non-scaling-stroke" d="M10 3 8 21"/><path vector-effect="non-scaling-stroke" d="m16 3-2 18"/></symbol>
<symbol id="i-circle-dashed" viewBox="0 0 24 24" fill="none" stroke="currentColor" stroke-linecap="round" stroke-linejoin="round"><path vector-effect="non-scaling-stroke" d="M10.1 2.182a10 10 0 0 1 3.8 0"/><path vector-effect="non-scaling-stroke" d="M13.9 21.818a10 10 0 0 1-3.8 0"/><path vector-effect="non-scaling-stroke" d="M17.609 3.721a10 10 0 0 1 2.69 2.7"/><path vector-effect="non-scaling-stroke" d="M2.182 13.9a10 10 0 0 1 0-3.8"/><path vector-effect="non-scaling-stroke" d="M20.279 17.609a10 10 0 0 1-2.7 2.69"/><path vector-effect="non-scaling-stroke" d="M21.818 10.1a10 10 0 0 1 0 3.8"/><path vector-effect="non-scaling-stroke" d="M3.721 6.391a10 10 0 0 1 2.7-2.69"/><path vector-effect="non-scaling-stroke" d="M6.391 20.279a10 10 0 0 1-2.69-2.7"/></symbol>
<symbol id="i-play" viewBox="0 0 24 24" fill="none" stroke="currentColor" stroke-linecap="round" stroke-linejoin="round"><path vector-effect="non-scaling-stroke" d="M5 5a2 2 0 0 1 3.008-1.728l11.997 6.998a2 2 0 0 1 .003 3.458l-12 7A2 2 0 0 1 5 19z"/></symbol>
<symbol id="i-square" viewBox="0 0 24 24" fill="none" stroke="currentColor" stroke-linecap="round" stroke-linejoin="round"><rect vector-effect="non-scaling-stroke" width="18" height="18" x="3" y="3" rx="2"/></symbol>
</defs>
</svg>
