<svg xmlns="http://www.w3.org/2000/svg" viewBox="0 0 300 200" fill="none" aria-hidden="true">
<path d="M226 40a44 44 0 1 0 40 62 36 36 0 0 1-40-62z" fill="#FFFCF8" fill-opacity=".92"/>
<path d="M120 45l1.5 3.5l3.5 1.5l-3.5 1.5l-1.5 3.5l-1.5 -3.5l-3.5 -1.5l3.5 -1.5z" fill="#FFFCF8" fill-opacity=".85" /><path d="M160 88l1.2 2.8l2.8 1.2l-2.8 1.2l-1.2 2.8l-1.2 -2.8l-2.8 -1.2l2.8 -1.2z" fill="#FFFCF8" fill-opacity=".85" /><path d="M90 97l0.8999999999999999 2.0999999999999996l2.0999999999999996 0.8999999999999999l-2.0999999999999996 0.8999999999999999l-0.8999999999999999 2.0999999999999996l-0.8999999999999999 -2.0999999999999996l-2.0999999999999996 -0.8999999999999999l2.0999999999999996 -0.8999999999999999z" fill="#FFFCF8" fill-opacity=".85" /><path d="M270 126l1.2 2.8l2.8 1.2l-2.8 1.2l-1.2 2.8l-1.2 -2.8l-2.8 -1.2l2.8 -1.2z" fill="#FFFCF8" fill-opacity=".85" /><path d="M200 137l0.8999999999999999 2.0999999999999996l2.0999999999999996 0.8999999999999999l-2.0999999999999996 0.8999999999999999l-0.8999999999999999 2.0999999999999996l-0.8999999999999999 -2.0999999999999996l-2.0999999999999996 -0.8999999999999999l2.0999999999999996 -0.8999999999999999z" fill="#FFFCF8" fill-opacity=".85" />
<path d="M0 200c60-48 140-60 300-30v30z" fill="#FFFCF8" fill-opacity=".24"/>
</svg>
