<svg xmlns="http://www.w3.org/2000/svg" viewBox="0 0 200 160" fill="none" aria-hidden="true">
<path d="M76 30c-6 10 6 16 0 26M100 24c-6 10 6 16 0 26M124 30c-6 10 6 16 0 26" stroke="#137F77" stroke-width="3" stroke-linecap="round" stroke-linejoin="round" stroke-opacity=".55"/>
<path d="M40 78h120v10a60 60 0 0 1-120 0z" fill="#E6EEDD" />
<path d="M40 78h120v10a60 60 0 0 1-120 0z" stroke="#5B8143" stroke-width="4" stroke-linecap="round" stroke-linejoin="round" />
<path d="M52 78c0-16 20-26 48-26s48 10 48 26" stroke="#5B8143" stroke-width="4" stroke-linecap="round" stroke-linejoin="round" />
<path d="M100 52v-8M90 44h20" stroke="#5B8143" stroke-width="4" stroke-linecap="round" stroke-linejoin="round" />
<path d="M148 96h34v40a8 8 0 0 1-8 8h-18a8 8 0 0 1-8-8z" fill="#F6EBD0" />
<path d="M148 96h34v40a8 8 0 0 1-8 8h-18a8 8 0 0 1-8-8zM146 96h38M154 90h22" stroke="#B4861B" stroke-width="3" stroke-linecap="round" stroke-linejoin="round" />
<path d="M70 146h60" stroke="#8A6A4B" stroke-width="3" stroke-linecap="round" stroke-linejoin="round" stroke-opacity=".5"/>
</svg>
